<svg width="24" height="24" viewBox="0 0 24 24" fill="none" xmlns="http://www.w3.org/2000/svg">
<path d="M16.5 1.5H7.5C4.1865 1.5 1.5 4.1865 1.5 7.5V16.5C1.5 19.8135 4.1865 22.5 7.5 22.5H16.5C19.8135 22.5 22.5 19.8135 22.5 16.5V7.5C22.5 4.1865 19.8135 1.5 16.5 1.5ZM5.66775 13.497C5.66775 13.5765 5.60325 13.6417 5.523 13.6417C5.44275 13.6417 5.37825 13.5773 5.37825 13.497C5.2425 12.786 5.17875 12.195 5.3655 11.4847C5.373 11.403 5.442 11.3407 5.52375 11.3407C5.6055 11.3407 5.6745 11.403 5.682 11.4847C5.90775 12.1987 5.82675 12.7755 5.66775 13.497ZM6.61425 14.0205C6.6 14.178 6.3255 14.1795 6.3105 14.0205C6.17325 12.9622 6.1155 12.0255 6.3045 10.9718C6.315 10.893 6.3825 10.8345 6.462 10.8345C6.5415 10.8345 6.609 10.893 6.6195 10.9718C6.83775 12.0398 6.76575 12.9473 6.6135 14.0205H6.61425ZM7.53525 14.1608C7.53525 14.241 7.47075 14.3055 7.3905 14.3055C7.31025 14.3055 7.24575 14.241 7.24575 14.1608C7.12725 13.1145 7.0215 12.162 7.24575 11.1255C7.25325 11.0468 7.31925 10.9875 7.398 10.9875C7.47675 10.9875 7.54275 11.0475 7.55025 11.1255C7.78725 12.1762 7.67925 13.0972 7.5345 14.1608H7.53525ZM8.48625 14.1547C8.47875 14.2335 8.41275 14.2935 8.334 14.2935C8.25525 14.2935 8.18925 14.2335 8.18175 14.1547C8.01 12.8182 8.01 11.4653 8.18175 10.1295C8.18175 10.044 8.25075 9.975 8.33625 9.975C8.42175 9.975 8.49075 10.044 8.49075 10.1295C8.67375 11.4653 8.67225 12.8197 8.48625 14.1547ZM9.417 14.1473C9.417 14.2298 9.35025 14.2965 9.26775 14.2965C9.18525 14.2965 9.1185 14.2298 9.1185 14.1473C8.90475 12.6323 8.97375 11.2133 9.1185 9.69525C9.1185 9.61275 9.18525 9.54525 9.26775 9.54525C9.35025 9.54525 9.417 9.612 9.417 9.69525C9.5685 11.2305 9.63675 12.6075 9.417 14.1473ZM10.3492 14.1517C10.3387 14.229 10.2727 14.2867 10.1947 14.2867C10.1168 14.2867 10.0507 14.229 10.0402 14.1517C9.8535 12.6705 9.8955 11.3243 10.0402 9.84C10.0402 9.75375 10.11 9.684 10.1962 9.684C10.2825 9.684 10.3523 9.75375 10.3523 9.84C10.5128 11.3377 10.5608 12.6487 10.3492 14.1517ZM11.28 14.1458C11.28 14.2283 11.2133 14.2943 11.1315 14.2943C11.0498 14.2943 10.9823 14.2275 10.9823 14.1458C10.7595 12.4867 10.8577 10.9253 10.9823 9.26175C10.9823 9.17925 11.049 9.1125 11.1315 9.1125C11.214 9.1125 11.28 9.17925 11.28 9.26175C11.4187 10.9395 11.52 12.4703 11.28 14.1458ZM16.836 14.2815H12.2355C12.0247 14.28 11.8545 14.1082 11.8553 13.8967V8.946C11.8463 8.7705 11.9482 8.60775 12.1095 8.53875C12.1095 8.53875 12.5317 8.25 13.422 8.25C13.9688 8.24775 14.5058 8.39475 14.976 8.67525C15.7163 9.108 16.2405 9.83175 16.4213 10.6702C16.5803 10.6245 16.7445 10.6012 16.9095 10.602C17.4067 10.602 17.883 10.8038 18.2295 11.1607C18.576 11.5177 18.7628 12 18.7477 12.4972C18.7185 13.509 17.8418 14.2822 16.8353 14.2822L16.836 14.2815Z" fill="black"/>
</svg>
