<svg width="24" height="24" viewBox="0 0 24 24" fill="none" xmlns="http://www.w3.org/2000/svg">
<path d="M16.122 10.3538C16.389 10.512 16.4767 10.8562 16.3185 11.1225C16.161 11.3895 15.8152 11.4773 15.5497 11.319C13.6163 10.1707 10.4257 10.065 8.57925 10.6252C8.283 10.7153 7.9695 10.548 7.8795 10.251C7.7895 9.95475 7.95675 9.64125 8.25375 9.55125C10.3733 8.90775 13.8967 9.03225 16.1227 10.3538H16.122ZM14.628 14.1398C13.0462 13.173 11.0858 12.948 8.8005 13.4708C8.59875 13.5165 8.4735 13.7175 8.51925 13.9185C8.565 14.1195 8.766 14.2463 8.967 14.1998C11.0557 13.7228 12.8287 13.9178 14.238 14.778C14.4142 14.886 14.6453 14.8305 14.7525 14.6542C14.8605 14.478 14.805 14.2478 14.6287 14.1398H14.628ZM15.3323 12.3773C13.4805 11.2388 10.7715 10.9185 8.592 11.58C8.34525 11.655 8.20575 11.916 8.28 12.1635C8.355 12.4103 8.616 12.5498 8.8635 12.4755C10.7708 11.8965 13.2293 12.1838 14.8425 13.1745C15.0623 13.3103 15.3503 13.2405 15.486 13.02C15.6218 12.8003 15.552 12.5122 15.3323 12.3773ZM22.5007 7.5V16.5C22.5007 19.8135 19.8142 22.5 16.5007 22.5H7.5C4.1865 22.5 1.5 19.8135 1.5 16.5V7.5C1.5 4.1865 4.1865 1.5 7.5 1.5H16.5C19.8135 1.5 22.5 4.1865 22.5 7.5H22.5007ZM18.0007 12C18.0007 8.6865 15.315 6 12.0007 6C8.68725 6 6.00075 8.68575 6.00075 12C6.00075 15.3142 8.68725 18 12.0007 18C15.3142 18 18.0007 15.3135 18.0007 12Z" fill="black"/>
</svg>
