<svg width="24" height="24" viewBox="0 0 24 24" fill="none" xmlns="http://www.w3.org/2000/svg">
<path d="M10.8 10.2L13.9177 12L10.8 13.8V10.2ZM22.5 7.5V16.5C22.5 19.8135 19.8135 22.5 16.5 22.5H7.5C4.1865 22.5 1.5 19.8135 1.5 16.5V7.5C1.5 4.1865 4.1865 1.5 7.5 1.5H16.5C19.8135 1.5 22.5 4.1865 22.5 7.5ZM18 12C18 12 18 10.0478 17.7495 9.11175C17.6115 8.59575 17.205 8.1885 16.6882 8.0505C15.7522 7.8 12 7.8 12 7.8C12 7.8 8.24775 7.8 7.31175 8.0505C6.79575 8.1885 6.3885 8.595 6.2505 9.11175C6 10.0478 6 12 6 12C6 12 6 13.9522 6.2505 14.8883C6.3885 15.4043 6.795 15.8115 7.31175 15.9495C8.24775 16.2 12 16.2 12 16.2C12 16.2 15.7522 16.2 16.6882 15.9495C17.2042 15.8115 17.6115 15.405 17.7495 14.8883C18 13.9522 18 12 18 12Z" fill="black"/>
</svg>
