<svg id="layer_1" enable-background="new 0 0 32 32" height="512" viewBox="0 0 32 32" width="512" xmlns="http://www.w3.org/2000/svg"><g><path d="m25.3099976 8.7699585c0-2.3699951-1.9199829-4.289978-4.2799683-4.289978h-1.0500488v2.6099854c0 .5500488-.4499512 1-1 1-.5499878 0-1-.4499512-1-1v-2.6099854h-8.6499634v2.6099854c0 .5500488-.4500122 1-1 1-.5599976 0-1-.4499512-1-1v-2.6099854h-1.0499878c-1.5100098 0-2.8300171.789978-3.5900269 1.9799805-.4299926.6600341-.6900024 1.4500121-.6900024 2.3000488v.6499634h23.3099976z"/><path d="m6.2800293 26.1900024h7.3899536c-.0199585-.0900268-.0199585-.1900024-.0199585-.290039 0-2.6099854 1.9400024-4.7599487 4.4400024-5.1399536v-3.3800049c0-1.960022 1.3999634-3.6199951 3.3299561-3.9400024l3.8900146-.6600342v-1.3699951h-23.3099975v10.5c0 2.3599853 1.9199829 4.2800292 4.2800293 4.2800292z"/><path d="m9.3300171 3.8800049c0-.5500488-.4500122-1-1-1-.5599976 0-1 .4499512-1 1v.5999756h2z"/><path d="m19.9799805 3.8800049c0-.5500488-.4499512-1-1-1-.5499878 0-1 .4499512-1 1v.5999756h2z"/><path d="m27.6738281 14.4116211-5.9179688 1c-.9628906.1625977-1.6621094.9892578-1.6621094 1.9663086v5.5447998c-.3769531-.1551514-.7883301-.2435303-1.2207031-.2435303-1.7763672 0-3.2207031 1.4448242-3.2207031 3.2207031 0 1.7753906 1.4443359 3.2202148 3.2207031 3.2202148s3.2207032-1.4448241 3.2207032-3.2202148l-.0048828-8.5161133 5.9111328-1.0063476v4.21521c-.3769531-.1551514-.7883301-.2435303-1.2207031-.2435303-1.7753906 0-3.2197266 1.4448242-3.2197266 3.2207031 0 1.7753906 1.4443359 3.2202148 3.2197266 3.2202148 1.7763672.0000001 3.2207031-1.4448242 3.2207031-3.2202148v-7.1923828c0-.5883789-.2578125-1.1435547-.7070312-1.5229492-.4482422-.3793945-1.0351563-.5410156-1.6191407-.4428711z"/></g></svg>