<svg width="24" height="24" viewBox="0 0 24 24" fill="none" xmlns="http://www.w3.org/2000/svg">
<path d="M16.677 8.4615C16.5682 8.18175 16.4385 7.9815 16.2285 7.7715C16.0185 7.5615 15.819 7.43175 15.5385 7.323C15.327 7.24125 15.0097 7.143 14.4247 7.11675C13.7917 7.08825 13.602 7.0815 12 7.0815C10.398 7.0815 10.2083 7.0875 9.57525 7.11675C8.99025 7.14375 8.67225 7.24125 8.4615 7.323C8.18175 7.43175 7.9815 7.56225 7.7715 7.77225C7.5615 7.98225 7.43175 8.18175 7.323 8.46225C7.2405 8.67375 7.143 8.99175 7.11675 9.576C7.0875 10.209 7.0815 10.3988 7.0815 12.0008C7.0815 13.6028 7.0875 13.7925 7.11675 14.4255C7.14375 15.0105 7.24125 15.3285 7.323 15.5393C7.43175 15.819 7.5615 16.0193 7.7715 16.2293C7.9815 16.4393 8.181 16.569 8.4615 16.6778C8.673 16.7603 8.99025 16.8578 9.57525 16.884C10.2083 16.9125 10.3973 16.9193 12 16.9193C13.6027 16.9193 13.7917 16.9133 14.4247 16.884C15.0097 16.857 15.3278 16.7595 15.5385 16.6778C15.8183 16.569 16.0185 16.4393 16.2285 16.2293C16.4385 16.0193 16.5682 15.8198 16.677 15.5393C16.7595 15.3278 16.857 15.0105 16.8832 14.4255C16.9125 13.7925 16.9185 13.6028 16.9185 12.0008C16.9185 10.3988 16.9125 10.209 16.8832 9.576C16.8562 8.991 16.7587 8.673 16.677 8.46225V8.4615ZM12 15.081C10.2983 15.081 8.919 13.7018 8.919 12C8.919 10.2983 10.2983 8.919 12 8.919C13.7017 8.919 15.081 10.2983 15.081 12C15.081 13.7018 13.7017 15.081 12 15.081ZM15.2025 9.51675C14.805 9.51675 14.4825 9.19425 14.4825 8.79675C14.4825 8.39925 14.805 8.07675 15.2025 8.07675C15.6 8.07675 15.9225 8.39925 15.9225 8.79675C15.9225 9.19425 15.6 9.51675 15.2025 9.51675ZM16.5 1.49925H7.5C4.1865 1.5 1.5 4.1865 1.5 7.5V16.5C1.5 19.8135 4.1865 22.5 7.5 22.5H16.5C19.8135 22.5 22.5 19.8135 22.5 16.5V7.5C22.5 4.1865 19.8135 1.5 16.5 1.5V1.49925ZM17.964 14.4728C17.9347 15.1118 17.8335 15.5475 17.685 15.9293C17.532 16.3238 17.3265 16.6583 16.9928 16.992C16.659 17.3258 16.3245 17.5305 15.93 17.6843C15.5483 17.8328 15.1125 17.934 14.4735 17.9633C13.8338 17.9925 13.629 17.9993 12 17.9993C10.371 17.9993 10.1662 17.9925 9.5265 17.9633C8.8875 17.934 8.45175 17.8328 8.07 17.6843C7.6755 17.5313 7.341 17.3258 7.00725 16.992C6.6735 16.6583 6.46875 16.3238 6.315 15.9293C6.1665 15.5475 6.06525 15.1118 6.036 14.4728C6.00675 13.833 6 13.6283 6 11.9993C6 10.3703 6.00675 10.1655 6.036 9.52575C6.06525 8.88675 6.1665 8.451 6.315 8.06925C6.468 7.67475 6.6735 7.34025 7.00725 7.0065C7.341 6.67275 7.6755 6.468 8.07 6.31425C8.45175 6.16575 8.8875 6.0645 9.5265 6.03525C10.1662 6.006 10.371 5.99925 12 5.99925C13.629 5.99925 13.8338 6.006 14.4735 6.03525C15.1125 6.0645 15.5483 6.16575 15.93 6.31425C16.3245 6.46725 16.659 6.67275 16.9928 7.0065C17.3265 7.34025 17.5312 7.67475 17.685 8.06925C17.8335 8.451 17.9347 8.88675 17.964 9.52575C17.9932 10.1655 18 10.3703 18 11.9993C18 13.6283 17.9932 13.833 17.964 14.4728ZM14.0002 11.9993C14.0002 13.104 13.1047 13.9995 12 13.9995C10.8953 13.9995 9.99975 13.104 9.99975 11.9993C9.99975 10.8945 10.8953 9.999 12 9.999C13.1047 9.999 14.0002 10.8945 14.0002 11.9993Z" fill="black"/>
</svg>
