<?xml version="1.0" encoding="UTF-8"?>
<svg id="Layer_1" xmlns="http://www.w3.org/2000/svg" version="1.1" viewBox="0 0 24 24">
  <!-- Generator: Adobe Illustrator 30.5.1, SVG Export Plug-In . SVG Version: 2.1.4 Build 3)  -->
  <path d="M16.5,1.5H7.5C4.187,1.5,1.5,4.187,1.5,7.5v9c0,3.313,2.687,6,6,6h9c3.313,0,6-2.687,6-6V7.5c0-3.313-2.687-6-6-6Z"/>
  <path d="M6.5,9.82h3.326l-2.364-2.254,1.308-1.345,2.254,2.317v-3.294h1.954v3.294l2.254-2.312,1.307,1.34-2.363,2.249h3.325v1.86h-3.343l2.379,2.312-1.304,1.313-3.231-3.247-3.231,3.247-1.308-1.308,2.38-2.312h-3.341v-1.86ZM11.018,14.343h1.954v4.413h-1.954v-4.413Z" style="fill: #fff;"/>
</svg>