<svg width="24" height="24" viewBox="0 0 24 24" fill="none" xmlns="http://www.w3.org/2000/svg">
<path d="M16.5 1.5H7.5C4.1865 1.5 1.5 4.1865 1.5 7.5V16.5C1.5 19.8135 4.1865 22.5 7.5 22.5H16.5C19.8135 22.5 22.5 19.8135 22.5 16.5V7.5C22.5 4.1865 19.8135 1.5 16.5 1.5Z" fill="black"/>
<path d="M6.5 8.2H9.6C10.45 8.2 11.15 8.44 11.62 8.88C12.02 9.26 12.24 9.78 12.24 10.4V10.42C12.24 11.44 11.66 12.06 10.84 12.36L12.42 14.6H10.68L9.3 12.6H8.16V14.6H6.5V8.2ZM9.5 11.2C10.16 11.2 10.56 10.86 10.56 10.36V10.34C10.56 9.8 10.14 9.5 9.48 9.5H8.16V11.2H9.5Z" fill="white"/>
<path d="M12.4 14.6L15 8.2H16.6L19.2 14.6H17.46L16.94 13.28H14.6L14.08 14.6H12.4ZM15.14 11.98H16.4L15.77 10.28L15.14 11.98Z" fill="white"/>
</svg>
